<svg xmlns="http://www.w3.org/2000/svg" viewBox="0 0 10 12">
	<g id="google_doc">
    	<path fill-rule="evenodd" d="M 6.5 3.73 C 6.28 3.73 6.1 3.55 6.1 3.33 L 6.1 0 L 1.24 0 C 0.97 0 0.75 0.22 0.75 0.49 L 0.75 11.51 C 0.75 11.78 0.97 12 1.24 12 L 9.36 12 C 9.63 12 9.85 11.78 9.85 11.51 L 9.85 3.73 L 6.5 3.73 L 6.5 3.73 Z M 7.3 8 L 5.96 5.6 L 4.64 5.6 L 5.98 8 L 7.3 8 L 7.3 8 Z M 4.85 8.27 L 4.19 9.33 L 6.74 9.33 L 7.4 8.27 L 4.85 8.27 L 4.85 8.27 Z M 4.46 5.89 L 3.2 8.15 L 3.86 9.33 L 5.14 7.07 L 4.46 5.89 L 4.46 5.89 Z M 9.85 3.2 L 6.91 3.2 C 6.76 3.2 6.64 3.08 6.64 2.93 L 6.64 0 L 9.85 3.2 L 9.85 3.2 Z M 9.85 3.2" />
    </g>
</svg>