<svg xmlns="http://www.w3.org/2000/svg" 
	 viewBox="0 0 272.3 302.1" enable-background="new 0 0 272.3 302.1" xml:space="preserve">
	<g id="keynote">
		<path d="M270.3,165.9c-1.3-0.2-2.7,0.1-4,0c-1.3-0.1-2.7,0-4,0c-1.7,0-3.3,0-5,0c-2.7,0-5.4,0-8,0H11.4
			c-3,0-6-0.2-9,0l0,0c-0.3,0-0.6,0-1,0c-1.5,0-1.8,18.3,4,18.3c0.9,0,1.5,0,2,0c0,0,0,0,0,0c1.6,0.2,3.4-0.1,5,0c1.3,0,2.7,0,4,0
			h116c0,0,0,0,0,0c-0.2,0.3,0,1.6,0,2v83.9c0,2.9,0.1,4.9,0,7c-0.1,2.6,0.1,4.3,0,6c-0.1,0.9,0.2,2.1,0,3c0,0.2,0.1,0.9,0,1
			c-0.2,0.2-0.8-0.2-1,0c-0.2,0.2,0.2,0.8,0,1c-0.2,0.2-0.8-0.2-1,0c-0.2,0.2-0.8-0.2-1,0c-0.2,0.2,0.1,0.8,0,1s0.2,0.8,0,1
			c-0.1,0.1-0.8-0.1-1,0c-0.5,0.2-1.5,0-2,0h-6c-1.7,0-3.3,0-5,0c-1.3,0-2.7,0-4,0h-25c-1.6,0-3.4-0.2-5,0c-1.3,0.2-2.7-0.1-4,0
			c-0.6,0-1.4-0.2-2,0c-0.2,0-0.9-0.1-1,0c-0.1,0.1,0.1,0.9,0,1c-0.2,0.1-0.8-0.2-1,0c-0.2,0.2,0.2,0.8,0,1c-0.2,0.2-0.8-0.2-1,0
			c-0.2,0.2,0.1,0.8,0,1c-0.1,0.2-0.9-0.1-1,0c-0.1,0.1,0.1,0.8,0,1c-0.1,0.3,0,0.7,0,1c0,0.6-0.1,1.4,0,2c0.1,0.6-0.2,1.5,0,2
			c0.1,0.1,0.9-0.1,1,0c0.2,0.2-0.1,0.8,0,1c0.1,0.2,0.8-0.2,1,0c0.2,0.2-0.2,0.8,0,1c0.2,0.2,0.8-0.2,1,0c0.1,0.1-0.1,0.9,0,1
			c0.5,0.2,1.5,0,2,0h2c1.6,0,3.4-0.1,5,0c1.3,0.1,2.7,0,4,0h98.8c1.6,0,3.4,0.2,5,0c1.3-0.1,2.7,0,4,0c1,0,2,0.1,3,0
			c0.1,0,0.9,0.1,1,0c0.1-0.1-0.1-0.9,0-1c0.2-0.1,0.8,0.2,1,0c0.2-0.2-0.2-0.8,0-1c0.2-0.2,0.8,0.2,1,0c0.2-0.2-0.1-0.8,0-1
			c0.1-0.2,0.9,0.1,1,0c0.1-0.1-0.1-0.8,0-1c0.1-0.3,0-0.7,0-1c0-0.6,0.1-1.4,0-2c-0.1-0.6,0.2-1.5,0-2c-0.1-0.1-0.9,0.1-1,0
			c-0.2-0.2,0.2-0.8,0-1c-0.2-0.2-0.8,0.2-1,0c-0.1-0.1,0.1-0.9,0-1c-0.6-0.2-1.4,0.2-2,0c-0.1,0,0.1-0.9,0-1c-0.1-0.1-0.8,0-1,0
			c-0.6-0.2-1.4,0-2,0c-1.3-0.1-2.7,0.1-4,0c-1.3-0.1-2.7,0-4,0h-25c-1.7,0-3.3,0-5,0c-1.3,0-2.7,0-4,0c-1.3,0-2.7,0.1-4,0
			c-0.7-0.1-1.3,0-2,0c-0.6,0-1.5,0.2-2,0c-0.2-0.1-0.9,0.1-1,0c-0.2-0.2,0.2-0.8,0-1c-0.2-0.2,0.2-0.8,0-1c-0.3-0.3-1.7,0.3-2,0
			c-0.2-0.2,0.1-0.8,0-1c-0.1-0.2-0.9,0.1-1,0c-0.1-0.1,0-0.8,0-1c-0.2-0.9,0.1-2,0-3c-0.1-1,0-2,0-3c0-1.3,0-2.7,0-4c0-2,0-4,0-6
			v-84.9c0-0.1,0-0.6,0.1-1h108.9c1.7,0,3.3,0,5,0c1.3,0,2.7,0,4,0h2c1,0,2.1,0.1,3,0c0.6-0.1,1.4,0.2,2,0c0.2,0,0.9,0.1,1,0
			c0.1-0.1,5,1.2,5-18.3C272.3,165.4,270.9,166,270.3,165.9z M1.1,162.3c0.2,0.2-0.2,0.9,0,1.1c0.1,0.1,0.9,0,1.1,0h267.9
			c0.3,0,1.9,0.2,2.1,0c0.1-0.1,0-0.9,0-1.1c0-0.7-11.6-105.7-11.8-106.4c0-0.2,0.1-0.9,0-1.1c-0.1-0.1-1,0.1-1.1,0
			c-0.3-0.6,0.3-1.6,0-2.1c-0.1-0.1-1,0.1-1.1,0c-0.2-0.2,0.2-0.9,0-1.1c-0.1-0.2-0.9,0.2-1.1,0c-0.2-0.2,0.2-0.9,0-1.1
			c-0.2-0.2-0.9,0.2-1.1,0c-0.2-0.2,0.2-0.9,0-1.1c-0.2-0.2-0.8,0.2-1.1,0c-0.2-0.1,0.2-0.9,0-1.1c-0.2-0.2-0.9,0.1-1.1,0
			c-0.3-0.1-0.8,0.2-1.1,0c-0.2-0.1,0.2-0.9,0-1.1c-0.2-0.2-0.9,0.1-1.1,0c-0.3-0.1-0.8,0.2-1.1,0c-0.2-0.1,0.2-0.9,0-1.1
			c-0.1-0.1-0.9,0-1.1,0c-1-0.2-2.2,0.2-3.2,0c-0.2-0.1-0.9,0.1-1.1,0c-0.2-0.1,0.2-0.9,0-1.1c-0.1-0.1-0.9,0-1.1,0
			c-1-0.2-2.2,0.1-3.2,0c-1.1-0.1-2.2,0-3.2,0c-1.1,0-2.1,0-3.2,0c-2.1-0.1-4.3,0-6.4,0H69.7c-1.8,0-4.5,0-6.4,0c-1.1,0-2.1,0-3.2,0
			c-2.8,0-4.7,0.1-6.4,0c-0.7,0-1.5,0.2-2.1,0c-0.2,0-0.9,0.1-1.1,0c-0.2-0.2,0.2-0.9,0-1.1c-0.1-0.1,0-0.9,0-1.1v-2.1
			c0-1.4-0.1-2.9,0-4.3c0.1-1-0.2-2.2,0-3.2c0-0.1,1,0.1,1.1,0c0.1-0.1,0-0.9,0-1.1c0.2-0.7-0.2-1.5,0-2.1c0.2-1-0.3-2.2,0-3.2
			c0-0.1,1,0.1,1.1,0c0.2-0.2-0.1-0.9,0-1.1c0.1-0.2-0.2-0.9,0-1.1c0.1-0.1,1,0.1,1.1,0c0.1-0.2,0-0.8,0-1.1c0-0.2-0.1-1,0-1.1
			c0.1-0.1,1,0.1,1.1,0c0.3-0.6-0.3-1.5,0-2.1c0.1-0.1,1,0.1,1.1,0c0.2-0.2-0.2-0.9,0-1.1c0.4-0.3,1.7,0.2,2.1,0
			c0.1-0.1-0.1-1,0-1.1c0.2-0.2,0.9,0.1,1.1,0c0.2-0.1,0.9,0.2,1.1,0c0.1-0.1-0.2-1,0-1.1c0.2-0.1,0.8,0,1.1,0c0.2,0,1,0.1,1.1,0
			c0.1-0.1-0.1-1,0-1.1c0.6-0.2,1.5,0,2.1,0h3.2c0.3,0,0.8,0.1,1.1,0c0.1,0-0.1-1,0-1.1c0.2-0.2,1.8,0,2.1,0c1.4-0.2,2.9,0,4.3,0
			h12.9c0.6,0,1.6-0.2,2.1,0c0.4,0.1,1.8-0.3,2.1,0c0.4,0.4-0.3,1.7,0,2.1c0.1,0.2,0.9-0.2,1.1,0c0.2,0.2-0.1,0.9,0,1.1
			c0.1,0.2-0.2,0.9,0,1.1c0.2,0.2,0.9-0.2,1.1,0c0.2,0.2-0.2,0.9,0,1.1c0.2,0.2,0.9-0.2,1.1,0c0.2,0.2-0.2,0.9,0,1.1
			c0.2,0.2,0.9-0.1,1.1,0s0.9-0.2,1.1,0c0.1,0.1-0.1,1,0,1.1c0.6,0.3,1.5-0.2,2.1,0c0.6,0.2,1.5,0,2.1,0h11.8c1.8,0,3.6,0,5.4,0
			c1.4,0,2.9,0,4.3,0c1.8,0,3.6,0.2,5.4,0c0.7-0.1,1.4,0,2.1,0c0.6,0,1.5,0.2,2.1,0c0.1,0-0.1-1,0-1.1c0.2-0.2,0.9,0.1,1.1,0
			c0.3-0.2,0.8,0.2,1.1,0c0.2-0.1-0.2-0.9,0-1.1c0.2-0.2,0.9,0.2,1.1,0c0.2-0.2-0.2-0.9,0-1.1c0.1-0.1,1,0.2,1.1,0
			c0.1-0.2,0-0.8,0-1.1c0-0.2-0.1-1,0-1.1c0.1-0.1,1,0.1,1.1,0c0.2-0.6,0-1.5,0-2.1V9.8c0-1,0.2-2.3,0-3.2c0-0.2,0.1-0.9,0-1.1
			c-0.1-0.2-0.9,0.2-1.1,0c-0.2-0.2,0.1-0.9,0-1.1c-0.1-0.3,0.2-0.8,0-1.1c-0.1-0.2-0.9,0.2-1.1,0c-0.2-0.2,0.2-0.9,0-1.1
			c-0.2-0.2-0.9,0.2-1.1,0c-0.2-0.2,0.2-0.9,0-1.1c-0.2-0.2-0.9,0.2-1.1,0c-0.1-0.1,0.1-1,0-1.1c-0.5-0.2-1.6,0-2.1,0
			c-1.1,0-2.2,0.1-3.2,0c-1.7-0.2-3.6,0-5.4,0c-1.8,0-3.6,0-5.4,0c-1.4,0-2.9,0-4.3,0h-10.7c-1.8,0-3.6-0.1-5.4,0
			c-0.2,0-1-0.1-1.1,0c-0.1,0.1,0.1,1,0,1.1c-0.3,0.1-0.8,0-1.1,0c-0.2,0-1-0.1-1.1,0c-0.2,0.2,0.1,0.9,0,1.1
			c-0.2,0.3,0.2,0.8,0,1.1c-0.1,0.2-0.9-0.2-1.1,0c-0.2,0.2,0.2,0.9,0,1.1c-0.1,0.2-0.9-0.2-1.1,0c-0.2,0.2,0.1,0.9,0,1.1
			c-0.1,0.2,0.2,0.9,0,1.1c-0.1,0.1-0.9-0.1-1.1,0c-0.5,0.2-1.6,0-2.1,0h-3.2c-2.1,0-4.3-0.1-6.4,0c-1.1,0-2.1,0-3.2,0
			c-1,0-2.2-0.1-3.2,0c-0.1,0,0.1,1,0,1.1c-0.2,0.2-1.8,0-2.1,0c-1.1,0.1-2.2-0.2-3.2,0c-1,0.2-2.2-0.1-3.2,0c-0.2,0-1-0.1-1.1,0
			c-0.1,0.1,0.1,1.1,0,1.1c-1,0.2-2.2-0.2-3.2,0c-0.3,0.1-0.9-0.1-1.1,0c-0.2,0.1,0.1,0.9,0,1.1c-0.1,0.1-0.9-0.1-1.1,0
			c-0.3,0.1-0.8,0-1.1,0c-0.2,0-1-0.1-1.1,0c-0.1,0.1,0.1,1,0,1.1c-0.2,0.1-0.8,0-1.1,0c-0.2,0-1-0.1-1.1,0c-0.1,0.1,0.2,1,0,1.1
			c-0.3,0.2-0.8-0.2-1.1,0c-0.2,0.1,0.2,0.9,0,1.1c-0.2,0.2-0.9-0.1-1.1,0c-0.3,0.1-0.8-0.2-1.1,0c-0.2,0.1,0.1,0.9,0,1.1
			c-0.2,0.2-0.9-0.2-1.1,0c-0.2,0.2,0.2,0.9,0,1.1c-0.1,0.1-1-0.1-1.1,0c-0.2,0.6,0.3,1.6,0,2.1c-0.1,0.2-0.9-0.1-1.1,0
			c-0.2,0.2,0.2,0.9,0,1.1c-0.2,0.2-0.9-0.2-1.1,0c-0.3,0.3,0.2,1.8,0,2.1c-0.1,0.1-1-0.1-1.1,0c-0.1,0.1,0,0.9,0,1.1
			c-0.2,0.7,0.2,1.5,0,2.1c0,0.1-1-0.1-1.1,0c-0.2,0.2,0.1,0.9,0,1.1c-0.1,0.3,0,0.8,0,1.1c0,0.2,0.1,1,0,1.1
			c-0.1,0.1-1.1-0.1-1.1,0c-0.1,0.7,0,1.5,0,2.1v2.1c0,1.8,0.1,3.6,0,5.4c0,1.4,0.1,2.9,0,4.3c0,0.7,0.1,1.5,0,2.1
			c0,0.2,0.1,0.9,0,1.1c-0.1,0.2-0.9-0.2-1.1,0c-0.2,0.2,0.2,0.9,0,1.1c-0.1,0.1-0.9,0-1.1,0h-8.6c-1,0-2.2-0.1-3.2,0
			c-0.2,0-0.9-0.1-1.1,0c-0.2,0.1,0.2,0.9,0,1.1c-0.1,0.1-0.9,0-1.1,0c-1,0.2-2.2-0.3-3.2,0c-0.3,0.1-0.8-0.1-1.1,0
			c-0.2,0.1,0.2,0.9,0,1.1c-0.2,0.2-0.9-0.1-1.1,0c-0.2,0.1-0.9-0.2-1.1,0c-0.1,0.1,0.1,1,0,1.1c-0.5,0.2-1.7-0.3-2.1,0
			c-0.2,0.1,0.1,0.9,0,1.1c-0.1,0.2-0.9-0.2-1.1,0c-0.2,0.2,0.2,0.9,0,1.1c-0.2,0.2-0.9-0.2-1.1,0c-0.2,0.2,0.2,0.9,0,1.1
			c-0.2,0.2-0.9-0.2-1.1,0c-0.2,0.2,0.1,0.9,0,1.1c-0.1,0.2-0.9-0.2-1.1,0c-0.2,0.2,0.1,0.9,0,1.1c-0.1,0.2,0.2,0.9,0,1.1
			c-0.1,0.1-1-0.1-1.1,0c-0.3,0.6,0.2,1.5,0,2.1c0,0.2,0.1,0.9,0,1.1c-0.1,0.1-1-0.1-1.1,0c-0.2,0.6,0,1.6,0,2.1
			c0,0.7,0.1,1.5,0,2.1c0,0.1-1-0.1-1.1,0l-9.6,98.8c0,0.1-1-0.1-1.1,0c-0.1,0.1,0,1,0,1.1C0.1,162.4,1,162.2,1.1,162.3z"/>
	</g>
</svg>
