<svg xmlns="http://www.w3.org/2000/svg">
	<g id="powerpoint">
		<path fill-rule="evenodd" d="M 13.71 1.53 L 8.4 1.53 L 8.4 0.15 L 0.72 1.48 L 0.72 11.53 L 8.4 12.86 L 8.4 11.19 L 13.71 11.19 C 13.95 11.19 14.15 10.99 14.15 10.75 L 14.15 1.97 C 14.15 1.73 13.95 1.53 13.71 1.53 L 13.71 1.53 Z M 13.71 10.75 L 8.4 10.75 L 8.4 9.64 L 12.54 9.64 L 12.54 9.13 L 8.4 9.13 L 8.4 8.27 L 12.54 8.27 L 12.54 7.75 L 8.4 7.75 L 8.4 6.33 C 8.73 6.72 9.23 6.97 9.78 6.97 C 10.79 6.97 11.6 6.16 11.6 5.16 L 9.78 5.16 L 9.78 3.35 C 9.23 3.35 8.73 3.6 8.4 3.99 L 8.4 1.97 L 13.71 1.97 L 13.71 10.75 L 13.71 10.75 Z M 13.71 10.75" />
    	<path fill-rule="evenodd" d="M 10.07 3.09 L 10.07 4.9 L 11.88 4.9 C 11.88 3.9 11.07 3.09 10.07 3.09" />
    	<path fill-rule="evenodd" d="M 3.95 8.67 L 3.18 8.67 L 3.18 4.4 C 3.77 4.4 4.36 4.38 4.95 4.41 C 5.11 4.42 5.29 4.53 5.4 4.65 C 5.84 5.1 5.84 5.66 5.71 6.21 C 5.59 6.71 5.27 7.06 4.76 7.18 C 4.51 7.24 4.24 7.23 3.95 7.26 L 3.95 8.67 L 3.95 8.67 Z M 3.97 6.43 C 4.28 6.45 4.58 6.51 4.76 6.19 C 4.9 5.95 4.89 5.52 4.73 5.33 C 4.52 5.1 4.24 5.13 3.97 5.17 L 3.97 6.43 L 3.97 6.43 Z M 3.97 6.43" />
	</g>
    
</svg>