<svg viewBox="0 0 92 92" version="1.1" xmlns="http://www.w3.org/2000/svg" xmlns:xlink="http://www.w3.org/1999/xlink">
    <g stroke="none" stroke-width="1" fill="none" fill-rule="evenodd">
        <g transform="translate(-572.000000, -339.000000)" stroke="#777777" stroke-width="2">
            <g transform="translate(245.000000, 226.000000)">
                <g transform="translate(310.000000, 14.000000)" id="Info">
                    <g transform="translate(3.000000, 42.000000)">
                        <g transform="translate(15.000000, 58.000000)">
                            <path d="M89.9490887,45.2360714 C89.9490887,69.9096532 69.9487839,89.909958 45.2752021,89.909958 C20.6016203,89.909958 0.601315497,69.9096532 0.601315497,45.2360714 C0.601315497,20.5624897 20.6016203,0.562184865 45.2752021,0.562184865 C69.9487839,0.562184865 89.9490887,20.5624897 89.9490887,45.2360714 L89.9490887,45.2360714 Z"></path>
                            <path d="M58.8589771,25.8971344 C59.1950024,18.2209953 52.7794439,12.2172134 45.2781156,12.2172134 C37.7787297,12.2172134 31.2699386,18.2714962 31.6991964,25.8971344 C31.7846595,27.429643 33.2083968,35.0183766 33.2083968,35.0183766 C34.381572,41.6048614 38.6119948,47.1793855 45.2781156,47.1793855 C51.9461788,47.1793855 56.0930808,41.6883821 57.3497767,35.0183766 C57.3497767,35.0183766 58.7909951,27.4315853 58.8589771,25.8971344 L58.8589771,25.8971344 Z"></path>
                            <path d="M12.2553729,75.3423863 L12.2553729,74.0351895 C12.2553729,67.9634257 16.7577237,63.5931541 22.7265434,62.0956078 L45.2752021,57.8613003 L67.9054391,62.0781267 C73.6916786,63.8942173 78.2950313,67.9420599 78.2950313,74.0196508 L78.2950313,75.3423863"></path>
                        </g>
                    </g>
                </g>
            </g>
        </g>
    </g>
</svg>