<svg xmlns="http://www.w3.org/2000/svg">
	<g id="clean">
    <path fill-rule="evenodd" d="M 20.49 5.41 L 17.38 0.6 C 17.14 0.23 16.71 0 16.24 0 L 4.42 0 C 3.95 0 3.51 0.23 3.27 0.6 L 0.19 5.42 C -0.11 5.88 -0.05 6.47 0.34 6.87 L 9.33 16.3 C 9.6 16.58 9.96 16.72 10.33 16.72 C 10.69 16.72 11.06 16.58 11.32 16.3 L 20.35 6.87 C 20.74 6.47 20.79 5.88 20.49 5.41 L 20.49 5.41 Z M 2.98 5.91 L 4.4 3.68 L 7.11 6.19 L 3.25 6.19 L 2.98 5.91 L 2.98 5.91 Z M 6.88 2.48 L 13.78 2.48 L 10.33 5.68 L 6.88 2.48 L 6.88 2.48 Z M 16.26 3.67 L 17.7 5.91 L 17.43 6.19 L 13.54 6.19 L 16.26 3.67 L 16.26 3.67 Z M 14.24 9 L 10.33 13.61 L 6.48 9 L 14.24 9 L 14.24 9 Z M 14.24 9" />
    </g>
</svg>