<svg xmlns="http://www.w3.org/2000/svg" viewBox="0 0 20 20">
	<g id="easy_custom">
    	<path fill-rule="evenodd" d="M 15.26 9.74 L 19.09 5.9 C 19.6 5.39 19.6 4.57 19.09 4.06 L 15.41 0.38 C 14.9 -0.13 14.08 -0.13 13.57 0.38 L 9.74 4.22 L 6.06 0.54 C 5.8 0.28 5.47 0.15 5.14 0.15 C 4.8 0.15 4.47 0.28 4.22 0.54 L 0.53 4.22 C 0.03 4.72 0.03 5.55 0.53 6.06 L 4.22 9.74 L 0.69 13.26 L 0.01 17.99 C -0.11 18.85 0.63 19.58 1.49 19.46 L 6.21 18.79 L 9.74 15.26 L 13.42 18.94 C 13.67 19.19 14 19.32 14.34 19.32 C 14.67 19.32 15 19.19 15.26 18.94 L 18.94 15.26 C 19.45 14.75 19.45 13.93 18.94 13.42 L 15.26 9.74 L 15.26 9.74 Z M 14.49 3.01 L 16.33 4.85 L 14.49 6.69 L 12.65 4.85 L 14.49 3.01 L 14.49 3.01 Z M 3.3 5.14 L 5.14 3.3 L 7.9 6.06 L 6.06 7.9 L 3.3 5.14 L 3.3 5.14 Z M 4.98 16.2 L 2.84 16.5 L 3.14 14.36 L 10.81 6.69 L 12.65 8.53 L 4.98 16.2 L 4.98 16.2 Z M 14.34 16.18 L 11.58 13.42 L 13.42 11.58 L 16.18 14.34 L 14.34 16.18 L 14.34 16.18 Z M 14.34 16.18" />
    </g>
</svg>