<svg xmlns="http://www.w3.org/2000/svg" viewBox="0 0 22 22">
	<g id="fluid">
	    <path fill-rule="evenodd" d="M 8.35 3.24 C 9.05 3.24 9.62 2.66 9.62 1.96 L 9.62 1.92 C 9.62 1.22 9.05 0.65 8.35 0.65 C 7.65 0.65 7.08 1.22 7.08 1.92 L 7.08 1.96 C 7.08 2.66 7.65 3.24 8.35 3.24" />
	    <path fill-rule="evenodd" d="M 3.2 4.53 C 3.9 4.53 4.47 3.96 4.47 3.26 L 4.47 3.21 C 4.47 2.51 3.9 1.94 3.2 1.94 C 2.5 1.94 1.93 2.51 1.93 3.21 L 1.93 3.26 C 1.93 3.96 2.5 4.53 3.2 4.53" />
	    <path fill-rule="evenodd" d="M 3.14 8.39 L 3.14 8.35 C 3.14 7.65 2.57 7.08 1.87 7.08 C 1.18 7.08 0.61 7.65 0.61 8.35 L 0.61 8.39 C 0.61 9.09 1.18 9.67 1.87 9.67 C 2.57 9.67 3.14 9.09 3.14 8.39" />
	    <path fill-rule="evenodd" d="M 3.2 12.29 C 2.5 12.29 1.93 12.87 1.93 13.57 L 1.93 13.61 C 1.93 14.31 2.5 14.88 3.2 14.88 C 3.9 14.88 4.47 14.31 4.47 13.61 L 4.47 13.57 C 4.47 12.87 3.9 12.29 3.2 12.29" />
	    <path fill-rule="evenodd" d="M 13.46 4.53 C 14.16 4.53 14.73 3.96 14.73 3.26 L 14.73 3.21 C 14.73 2.51 14.16 1.94 13.46 1.94 C 12.76 1.94 12.19 2.51 12.19 3.21 L 12.19 3.26 C 12.19 3.96 12.76 4.53 13.46 4.53" />
	    <path fill-rule="evenodd" d="M 13.48 8.39 L 13.48 8.43 C 13.48 9.13 14.05 9.71 14.75 9.71 C 15.44 9.71 16.01 9.13 16.01 8.43 L 16.01 8.39 C 16.01 7.69 15.44 7.12 14.75 7.12 C 14.05 7.12 13.48 7.69 13.48 8.39" />
	    <path fill-rule="evenodd" d="M 8.35 13.59 C 7.65 13.59 7.08 14.16 7.08 14.86 L 7.08 14.9 C 7.08 15.6 7.65 16.18 8.35 16.18 C 9.05 16.18 9.62 15.6 9.62 14.9 L 9.62 14.86 C 9.62 14.16 9.05 13.59 8.35 13.59" />
	    <path fill-rule="evenodd" d="M 20.83 19.15 L 11.8 10.08 C 12.05 9.57 12.19 9.01 12.19 8.41 C 12.19 6.27 10.46 4.53 8.33 4.53 C 6.2 4.53 4.47 6.27 4.47 8.41 C 4.47 10.56 6.2 12.29 8.33 12.29 C 8.93 12.29 9.48 12.15 9.99 11.91 L 19.01 20.98 C 19.26 21.23 19.59 21.35 19.92 21.35 C 20.25 21.35 20.58 21.23 20.83 20.98 C 21.33 20.47 21.33 19.65 20.83 19.15 L 20.83 19.15 Z M 8.33 9.71 C 7.62 9.71 7.04 9.12 7.04 8.41 C 7.04 7.7 7.62 7.12 8.33 7.12 C 9.04 7.12 9.62 7.7 9.62 8.41 C 9.62 9.12 9.04 9.71 8.33 9.71 L 8.33 9.71 Z M 8.33 9.71" />
    </g>
</svg>