<svg xmlns="http://www.w3.org/2000/svg">
	<g id="multimedia">
		<path fill-rule="evenodd" d="M 17.06 0.59 L 2.94 0.59 C 1.64 0.59 0.59 1.64 0.59 2.94 L 0.59 13.53 C 0.59 14.83 1.64 15.88 2.94 15.88 L 17.06 15.88 C 18.36 15.88 19.41 14.83 19.41 13.53 L 19.41 2.94 C 19.41 1.64 18.36 0.59 17.06 0.59 L 17.06 0.59 Z M 2.94 13.53 L 2.94 11.66 L 4.12 10.49 L 7.16 13.53 L 2.94 13.53 L 2.94 13.53 Z M 17.06 13.53 L 10.49 13.53 L 4.95 7.99 C 4.49 7.53 3.75 7.53 3.29 7.99 L 2.94 8.34 L 2.94 2.94 L 17.06 2.94 L 17.06 13.53 L 17.06 13.53 Z M 17.06 13.53" />
	    <path fill-rule="evenodd" d="M 18.27 17.06 L 1.73 17.06 C 1.1 17.06 0.59 17.57 0.59 18.2 L 0.59 18.27 C 0.59 18.9 1.1 19.41 1.73 19.41 L 18.27 19.41 C 18.9 19.41 19.41 18.9 19.41 18.27 L 19.41 18.2 C 19.41 17.57 18.9 17.06 18.27 17.06" />
	    <path fill-rule="evenodd" d="M 12.94 10 C 14.57 10 15.88 8.68 15.88 7.06 C 15.88 5.43 14.57 4.12 12.94 4.12 C 11.32 4.12 10 5.43 10 7.06 C 10 8.68 11.32 10 12.94 10" />
	</g>
   
</svg>