<svg xmlns="http://www.w3.org/2000/svg" >
	<g id="responsive">
		<path fill-rule="evenodd" d="M 12.95 0.67 L 2.05 0.67 C 1.29 0.67 0.68 1.26 0.68 2 L 0.68 18 C 0.68 18.74 1.29 19.33 2.05 19.33 L 12.95 19.33 C 13.71 19.33 14.32 18.74 14.32 18 L 14.32 2 C 14.32 1.26 13.71 0.67 12.95 0.67 L 12.95 0.67 Z M 3.41 3.33 L 11.59 3.33 L 11.59 16.67 L 3.41 16.67 L 3.41 3.33 Z M 3.41 3.33" />
    	<path fill-rule="evenodd" d="M 7.5 15.33 C 8.25 15.33 8.86 14.74 8.86 14 C 8.86 13.26 8.25 12.67 7.5 12.67 C 6.75 12.67 6.14 13.26 6.14 14 C 6.14 14.74 6.75 15.33 7.5 15.33" />
	</g>
</svg>