<svg xmlns="http://www.w3.org/2000/svg">
	<g id="retina">
	    <path fill="#5f5f5f" fill-rule="evenodd" d="M 18.11 0.59 L 13.42 0.59 C 12.78 0.59 12.26 1.11 12.26 1.76 L 12.26 2.94 L 7.57 2.94 L 7.57 1.76 C 7.57 1.11 7.07 0.59 6.42 0.59 L 1.74 0.59 C 1.1 0.59 0.55 1.11 0.55 1.76 L 0.55 6.46 C 0.55 7.11 1.1 7.64 1.74 7.64 L 2.89 7.64 L 2.89 12.34 L 1.74 12.34 C 1.1 12.34 0.55 12.89 0.55 13.54 L 0.55 18.24 C 0.55 18.89 1.1 19.39 1.74 19.39 L 6.42 19.39 C 7.07 19.39 7.57 18.89 7.57 18.24 L 7.57 13.54 C 7.57 12.89 7.07 12.34 6.42 12.34 L 5.23 12.34 L 5.23 7.64 L 6.42 7.64 C 7.07 7.64 7.57 7.11 7.57 6.46 L 7.57 5.29 L 12.26 5.29 L 12.26 6.46 C 12.26 7.11 12.78 7.64 13.42 7.64 L 18.11 7.64 C 18.75 7.64 19.28 7.11 19.28 6.46 L 19.28 1.76 C 19.28 1.11 18.75 0.59 18.11 0.59 L 18.11 0.59 Z M 2.89 14.69 L 5.23 14.69 L 5.23 17.04 L 2.89 17.04 L 2.89 14.69 Z M 2.89 2.94 L 5.23 2.94 L 5.23 5.29 L 2.89 5.29 L 2.89 2.94 Z M 14.6 2.94 L 16.94 2.94 L 16.94 5.29 L 14.6 5.29 L 14.6 2.94 Z M 14.6 2.94" />
	    <path fill="#5f5f5f" fill-rule="evenodd" d="M 15.66 14.12 L 17.76 12.02 C 18.06 11.72 18.17 11.29 18.07 10.89 C 17.96 10.49 17.66 10.17 17.26 10.05 L 9.07 7.7 C 8.66 7.59 8.22 7.7 7.92 8 C 7.62 8.3 7.5 8.75 7.62 9.16 L 9.96 17.38 C 10.07 17.78 10.39 18.09 10.79 18.2 C 10.89 18.22 10.99 18.24 11.08 18.24 C 11.39 18.24 11.69 18.12 11.91 17.89 L 14.01 15.79 L 17.28 19.07 C 17.51 19.3 17.81 19.41 18.11 19.41 C 18.4 19.41 18.7 19.3 18.93 19.07 C 19.39 18.61 19.39 17.86 18.93 17.41 L 15.66 14.12 L 15.66 14.12 Z M 11.66 14.82 L 10.45 10.54 L 14.7 11.76 L 11.66 14.82 L 11.66 14.82 Z M 11.66 14.82" />
    </g>
</svg>