<svg xmlns="http://www.w3.org/2000/svg">
	<g id="water">
    	<path fill-rule="evenodd" d="M 14.58 15.41 C 14.58 14.08 14.2 12.85 13.58 11.78 L 13.61 11.78 L 7.36 0.91 L 1.11 11.78 L 1.15 11.78 C 0.53 12.85 0.14 14.08 0.14 15.41 C 0.14 19.41 3.38 22.66 7.36 22.66 C 11.35 22.66 14.58 19.41 14.58 15.41 L 14.58 15.41 Z M 7.36 19.03 C 5.37 19.03 3.75 17.41 3.75 15.41 C 3.75 14.8 3.92 14.19 4.26 13.6 C 4.34 13.47 4.41 13.32 4.47 13.18 L 7.36 8.16 L 10.25 13.18 C 10.31 13.32 10.38 13.47 10.46 13.6 C 10.8 14.19 10.97 14.8 10.97 15.41 C 10.97 17.41 9.35 19.03 7.36 19.03 L 7.36 19.03 Z M 7.36 19.03" />
    </g>
</svg>